# xmcd
#
# Track frame offsets:
#	150
#	15975
#	26202
#	42960
#	64902
#
# Disc length: 1053 seconds
#
# Revision: 1
# Processed by: cddbd v1.5.1PL0 Copyright (c) Steve Scherf et al.
# Submitted via: CDex 1.50Beta5
#
DISCID=39041b05
DTITLE=Jitterin' Jinn - Caramba!
DYEAR=2003
DGENRE=Rock
TTITLE0=カランバ！
TTITLE1=指輪
TTITLE2=陽炎
TTITLE3=ひまわり
TTITLE4=アスタ・ラ・ビスタ！
EXTD=
EXTT0=
EXTT1=
EXTT2=
EXTT3=
EXTT4=
PLAYORDER=
